<svg width="56" height="64" viewBox="0 0 56 64" fill="none" xmlns="http://www.w3.org/2000/svg">
<path d="M0.0618454 31.9554C0.0618454 27.1878 0.0889669 22.4201 0.0463473 17.6525C0.0347238 16.3236 0.336936 15.4843 1.65427 14.746C9.9806 10.0716 18.2411 5.28066 26.486 0.470265C27.5825 -0.170862 28.3807 -0.151434 29.481 0.489693C37.9042 5.38557 46.3778 10.1882 54.7932 15.0957C55.3744 15.4338 55.9478 16.3741 55.9517 17.0424C56.0253 27.0285 56.0331 37.0184 55.9323 47.0044C55.9246 47.731 55.1109 48.7141 54.4096 49.1299C48.2337 52.7823 41.9957 56.3377 35.7771 59.9202C33.774 61.0742 31.736 62.1661 29.7832 63.4017C28.5473 64.1827 27.4895 64.2099 26.2226 63.4717C18.2992 58.8556 10.3719 54.2511 2.3943 49.7321C0.716638 48.7801 -0.0815116 47.7466 0.00372766 45.6872C0.189704 41.1099 0.0618454 36.5288 0.0618454 31.9554ZM6.54003 34.4034C6.54003 37.3331 6.66014 39.9637 6.49741 42.5748C6.39667 44.2068 7.11346 44.9956 8.3998 45.7222C12.7005 48.139 16.947 50.653 21.2244 53.1048C22.5185 53.847 23.8552 54.5114 25.4903 55.3779C25.4903 52.1218 25.4709 49.2969 25.5058 46.476C25.5135 45.9359 25.6801 44.9606 25.8777 44.9334C27.1951 44.7508 28.5783 44.5953 29.8607 44.8401C30.2327 44.9101 30.5271 46.3167 30.5504 47.121C30.6356 49.7166 30.5814 52.3199 30.5814 54.9622C31.1122 54.9155 31.3369 54.9622 31.4841 54.8767C37.1526 51.6205 42.8248 48.376 48.4545 45.0461C48.9311 44.7624 49.3185 43.9426 49.3456 43.3519C49.4464 40.9701 49.334 38.5843 49.4076 36.2024C49.4503 34.8502 48.9505 34.3956 47.606 34.4539C45.3898 34.5471 43.1658 34.4811 40.7404 34.4811C40.7404 33.261 40.8062 32.3634 40.7249 31.4814C40.5815 29.9388 41.0813 29.2666 42.759 29.3754C44.9171 29.5153 47.0868 29.4103 49.3805 29.4103C49.3805 26.2241 49.4348 23.3255 49.3302 20.4346C49.3108 19.8867 48.7761 19.1717 48.2763 18.8609C45.5525 17.1706 42.7706 15.5659 39.9926 13.965C37.0131 12.2476 34.0142 10.569 30.7402 8.71166C30.6705 9.64032 30.593 10.2504 30.5891 10.8604C30.5736 13.1141 30.6008 15.3716 30.5659 17.6253C30.5581 18.1149 30.407 19.0047 30.2443 19.0241C28.865 19.1912 27.4508 19.3039 26.0792 19.1523C25.8157 19.1251 25.5329 17.8739 25.5174 17.1823C25.4515 14.4429 25.4903 11.6997 25.4903 8.89428C25.0021 8.9448 24.789 8.90594 24.6456 8.98754C18.8571 12.302 13.0725 15.6203 7.30718 18.9736C6.97398 19.1679 6.6059 19.6419 6.59815 19.9916C6.54391 23.0651 6.56715 26.1348 6.56715 29.4103C8.29131 29.4103 9.82174 29.4103 11.3522 29.4103C15.9009 29.4103 15.9512 29.4686 15.3003 34.0537C15.2926 34.1081 15.2267 34.1547 15.0368 34.3995C12.4487 34.4034 9.70163 34.4034 6.54003 34.4034Z" fill="#61ADF4"/>
</svg>
